# Blender v3.0.0 OBJ File: 'zeus.blend'
# www.blender.org
mtllib zeus.mtl
o Cylinder
v 0.000000 -0.053231 -1.024741
v -0.000000 0.053231 -0.048557
v 0.199917 -0.053231 -1.005051
v 0.009473 0.053231 -0.047624
v 0.392152 -0.053231 -0.946737
v 0.018582 0.053231 -0.044861
v 0.569316 -0.053231 -0.852041
v 0.026977 0.053231 -0.040374
v 0.724601 -0.053231 -0.724601
v 0.034335 0.053231 -0.034335
v 0.852041 -0.053231 -0.569316
v 0.040374 0.053231 -0.026977
v 0.946737 -0.053231 -0.392151
v 0.044861 0.053231 -0.018582
v 1.005051 -0.053231 -0.199917
v 0.047624 0.053231 -0.009473
v 1.024741 -0.053231 0.000000
v 0.048557 0.053231 0.000000
v 1.005051 -0.053231 0.199917
v 0.047624 0.053231 0.009473
v 0.946737 -0.053231 0.392151
v 0.044861 0.053231 0.018582
v 0.852041 -0.053231 0.569316
v 0.040374 0.053231 0.026977
v 0.724601 -0.053231 0.724601
v 0.034335 0.053231 0.034335
v 0.569316 -0.053231 0.852041
v 0.026977 0.053231 0.040374
v 0.392152 -0.053231 0.946737
v 0.018582 0.053231 0.044861
v 0.199917 -0.053231 1.005051
v 0.009473 0.053231 0.047624
v -0.000000 -0.053231 1.024741
v -0.000000 0.053231 0.048557
v -0.199917 -0.053231 1.005051
v -0.009473 0.053231 0.047624
v -0.392151 -0.053231 0.946737
v -0.018582 0.053231 0.044861
v -0.569316 -0.053231 0.852041
v -0.026977 0.053231 0.040374
v -0.724601 -0.053231 0.724602
v -0.034335 0.053231 0.034335
v -0.852041 -0.053231 0.569316
v -0.040374 0.053231 0.026977
v -0.946737 -0.053231 0.392152
v -0.044861 0.053231 0.018582
v -1.005051 -0.053231 0.199917
v -0.047624 0.053231 0.009473
v -1.024741 -0.053231 -0.000000
v -0.048557 0.053231 0.000000
v -1.005051 -0.053231 -0.199917
v -0.047624 0.053231 -0.009473
v -0.946737 -0.053231 -0.392152
v -0.044861 0.053231 -0.018582
v -0.852041 -0.053231 -0.569315
v -0.040374 0.053231 -0.026977
v -0.724602 -0.053231 -0.724601
v -0.034335 0.053231 -0.034335
v -0.569316 -0.053231 -0.852041
v -0.026977 0.053231 -0.040374
v -0.392151 -0.053231 -0.946737
v -0.018582 0.053231 -0.044861
v -0.199917 -0.053231 -1.005051
v -0.009473 0.053231 -0.047624
v -0.000000 -0.120162 -0.887908
v 0.173222 -0.120162 -0.870847
v 0.339788 -0.120162 -0.820320
v 0.493295 -0.120162 -0.738269
v 0.627846 -0.120162 -0.627846
v 0.738269 -0.120162 -0.493295
v 0.820320 -0.120162 -0.339788
v 0.870847 -0.120162 -0.173222
v 0.887908 -0.120162 0.000000
v 0.870847 -0.120162 0.173222
v 0.820320 -0.120162 0.339788
v 0.738269 -0.120162 0.493295
v 0.627846 -0.120162 0.627846
v 0.493295 -0.120162 0.738269
v 0.339788 -0.120162 0.820320
v 0.173222 -0.120162 0.870848
v -0.000000 -0.120162 0.887908
v -0.173222 -0.120162 0.870848
v -0.339788 -0.120162 0.820320
v -0.493296 -0.120162 0.738269
v -0.627846 -0.120162 0.627846
v -0.738269 -0.120162 0.493296
v -0.820320 -0.120162 0.339788
v -0.870847 -0.120162 0.173222
v -0.887908 -0.120162 -0.000000
v -0.870847 -0.120162 -0.173222
v -0.820320 -0.120162 -0.339788
v -0.738269 -0.120162 -0.493295
v -0.627846 -0.120162 -0.627846
v -0.493296 -0.120162 -0.738269
v -0.339788 -0.120162 -0.820320
v -0.173222 -0.120162 -0.870848
v -0.000000 -0.046513 -0.887908
v 0.173222 -0.046513 -0.870847
v 0.339788 -0.046513 -0.820320
v 0.493295 -0.046513 -0.738269
v 0.627846 -0.046513 -0.627846
v 0.738269 -0.046513 -0.493295
v 0.820320 -0.046513 -0.339788
v 0.870847 -0.046513 -0.173222
v 0.887908 -0.046513 0.000000
v 0.870847 -0.046513 0.173222
v 0.820320 -0.046513 0.339788
v 0.738269 -0.046513 0.493295
v 0.627846 -0.046513 0.627846
v 0.493295 -0.046513 0.738269
v 0.339788 -0.046513 0.820320
v 0.173222 -0.046513 0.870848
v -0.000000 -0.046513 0.887908
v -0.173222 -0.046513 0.870848
v -0.339788 -0.046513 0.820320
v -0.493296 -0.046513 0.738269
v -0.627846 -0.046513 0.627846
v -0.738269 -0.046513 0.493296
v -0.820320 -0.046513 0.339788
v -0.870847 -0.046513 0.173222
v -0.887908 -0.046513 -0.000000
v -0.870847 -0.046513 -0.173222
v -0.820320 -0.046513 -0.339788
v -0.738269 -0.046513 -0.493295
v -0.627846 -0.046513 -0.627846
v -0.493296 -0.046513 -0.738269
v -0.339788 -0.046513 -0.820320
v -0.173222 -0.046513 -0.870848
vt 0.088842 0.629436
vt 0.480863 0.504756
vt 0.482392 0.508625
vt 0.121103 0.711095
vt 0.484611 0.512108
vt 0.167939 0.784585
vt 0.487435 0.515069
vt 0.227550 0.847084
vt 0.490757 0.517396
vt 0.297644 0.896189
vt 0.494447 0.518999
vt 0.375529 0.930013
vt 0.498365 0.519816
vt 0.458212 0.947257
vt 0.502360 0.519816
vt 0.542514 0.947257
vt 0.506278 0.518999
vt 0.625196 0.930013
vt 0.509968 0.517396
vt 0.703081 0.896189
vt 0.513290 0.515069
vt 0.773176 0.847084
vt 0.516114 0.512108
vt 0.832786 0.784585
vt 0.518333 0.508625
vt 0.879622 0.711094
vt 0.519862 0.504756
vt 0.911883 0.629436
vt 0.520642 0.500648
vt 0.928329 0.542747
vt 0.520642 0.496460
vt 0.928329 0.454361
vt 0.519862 0.492353
vt 0.911883 0.367673
vt 0.518333 0.488483
vt 0.879622 0.286014
vt 0.516114 0.485001
vt 0.832786 0.212523
vt 0.513290 0.482039
vt 0.773175 0.150025
vt 0.509968 0.479713
vt 0.703081 0.100920
vt 0.506278 0.478110
vt 0.625196 0.067096
vt 0.502360 0.477293
vt 0.542514 0.049852
vt 0.498365 0.477293
vt 0.458211 0.049852
vt 0.494447 0.478110
vt 0.375529 0.067096
vt 0.490757 0.479713
vt 0.297644 0.100920
vt 0.487435 0.482039
vt 0.227550 0.150025
vt 0.484611 0.485001
vt 0.167939 0.212523
vt 0.482391 0.488483
vt 0.121103 0.286014
vt 0.480863 0.492353
vt 0.088842 0.367673
vt 0.480084 0.496460
vt 0.072396 0.454361
vt 0.480084 0.500648
vt 0.072396 0.542748
vt 0.250000 0.500000
vt 0.218750 0.500000
vt 0.218750 0.500000
vt 0.250000 0.500000
vt 0.875000 0.500000
vt 0.843750 0.500000
vt 0.843750 0.500000
vt 0.875000 0.500000
vt 0.937500 0.500000
vt 0.906250 0.500000
vt 0.906250 0.500000
vt 0.937500 0.500000
vt 0.656250 0.500000
vt 0.625000 0.500000
vt 0.625000 0.500000
vt 0.656250 0.500000
vt 0.375000 0.500000
vt 0.343750 0.500000
vt 0.343750 0.500000
vt 0.375000 0.500000
vt 0.093750 0.500000
vt 0.062500 0.500000
vt 0.062500 0.500000
vt 0.093750 0.500000
vt 0.781250 0.500000
vt 0.750000 0.500000
vt 0.750000 0.500000
vt 0.781250 0.500000
vt 0.500000 0.500000
vt 0.468750 0.500000
vt 0.468750 0.500000
vt 0.500000 0.500000
vt 0.187500 0.500000
vt 0.187500 0.500000
vt 0.875000 0.500000
vt 0.593750 0.500000
vt 0.593750 0.500000
vt 0.312500 0.500000
vt 0.312500 0.500000
vt 0.031250 0.500000
vt 0.031250 0.500000
vt 0.718750 0.500000
vt 0.718750 0.500000
vt 0.437500 0.500000
vt 0.437500 0.500000
vt 0.156250 0.500000
vt 0.156250 0.500000
vt 0.843750 0.500000
vt 0.562500 0.500000
vt 0.562500 0.500000
vt 1.000000 0.500000
vt 0.968750 0.500000
vt 0.968750 0.500000
vt 1.000000 0.500000
vt 0.281250 0.500000
vt 0.281250 0.500000
vt 0.000000 0.500000
vt 0.000000 0.500000
vt 0.687500 0.500000
vt 0.687500 0.500000
vt 0.406250 0.500000
vt 0.406250 0.500000
vt 0.125000 0.500000
vt 0.125000 0.500000
vt 0.812500 0.500000
vt 0.812500 0.500000
vt 0.531250 0.500000
vt 0.531250 0.500000
vt 0.548069 0.858715
vt 0.550086 0.851942
vt 0.554043 0.845561
vt 0.559787 0.839819
vt 0.567098 0.834936
vt 0.575694 0.831099
vt 0.585246 0.828456
vt 0.594756 0.826966
vt 0.605992 0.827086
vt 0.615866 0.828456
vt 0.625418 0.831099
vt 0.634015 0.834936
vt 0.641326 0.839819
vt 0.647070 0.845561
vt 0.651027 0.851942
vt 0.653044 0.858715
vt 0.653044 0.865621
vt 0.651027 0.872394
vt 0.647070 0.878774
vt 0.641326 0.884516
vt 0.634015 0.889400
vt 0.625418 0.893236
vt 0.615866 0.895879
vt 0.605726 0.897227
vt 0.595387 0.897227
vt 0.585246 0.895879
vt 0.575694 0.893236
vt 0.567098 0.889400
vt 0.559787 0.884516
vt 0.554043 0.878774
vt 0.550086 0.872394
vt 0.548069 0.865621
vt 0.000000 0.500000
vt 0.031250 0.500000
vt 0.406250 0.500000
vt 0.437500 0.500000
vt 0.812500 0.500000
vt 0.375000 0.500000
vt 0.781250 0.500000
vt 0.343750 0.500000
vt 0.750000 0.500000
vt 0.312500 0.500000
vt 0.718750 0.500000
vt 0.281250 0.500000
vt 0.687500 0.500000
vt 0.250000 0.500000
vt 0.656250 0.500000
vt 0.218750 0.500000
vt 0.625000 0.500000
vt 0.187500 0.500000
vt 0.593750 0.500000
vt 0.156250 0.500000
vt 0.562500 0.500000
vt 0.968750 0.500000
vt 1.000000 0.500000
vt 0.125000 0.500000
vt 0.531250 0.500000
vt 0.937500 0.500000
vt 0.093750 0.500000
vt 0.500000 0.500000
vt 0.906250 0.500000
vt 0.062500 0.500000
vt 0.468750 0.500000
vn 0.0107 0.9940 -0.1084
vn 0.0316 0.9940 -0.1042
vn 0.0514 0.9940 -0.0961
vn 0.0691 0.9940 -0.0842
vn 0.0842 0.9940 -0.0691
vn 0.0961 0.9940 -0.0514
vn 0.1042 0.9940 -0.0316
vn 0.1084 0.9940 -0.0107
vn 0.1084 0.9940 0.0107
vn 0.1042 0.9940 0.0316
vn 0.0961 0.9940 0.0514
vn 0.0842 0.9940 0.0691
vn 0.0691 0.9940 0.0842
vn 0.0514 0.9940 0.0961
vn 0.0316 0.9940 0.1042
vn 0.0107 0.9940 0.1084
vn -0.0107 0.9940 0.1084
vn -0.0316 0.9940 0.1042
vn -0.0514 0.9940 0.0961
vn -0.0691 0.9940 0.0842
vn -0.0842 0.9940 0.0691
vn -0.0961 0.9940 0.0514
vn -0.1042 0.9940 0.0316
vn -0.1084 0.9940 0.0107
vn -0.1084 0.9940 -0.0107
vn -0.1042 0.9940 -0.0316
vn -0.0961 0.9940 -0.0514
vn -0.0842 0.9940 -0.0691
vn -0.0691 0.9940 -0.0842
vn -0.0514 0.9940 -0.0961
vn 0.0000 1.0000 0.0000
vn -0.0316 0.9940 -0.1042
vn -0.0107 0.9940 -0.1084
vn -0.4390 -0.8975 -0.0432
vn -0.7730 0.0000 0.6344
vn 0.2079 -0.8975 -0.3890
vn 0.3410 -0.8975 0.2798
vn -0.3410 -0.8975 0.2798
vn -0.2079 -0.8975 -0.3890
vn 0.4390 -0.8975 -0.0432
vn -0.0432 -0.8975 0.4390
vn -0.4221 -0.8975 -0.1280
vn 0.2798 -0.8975 -0.3410
vn 0.2798 -0.8975 0.3410
vn -0.3890 -0.8975 0.2079
vn -0.1280 -0.8975 -0.4221
vn 0.4390 -0.8975 0.0432
vn -0.1280 -0.8975 0.4221
vn -0.3890 -0.8975 -0.2079
vn 0.3410 -0.8975 -0.2798
vn 0.2079 -0.8975 0.3890
vn 0.0432 -0.8975 -0.4390
vn -0.4221 -0.8975 0.1280
vn -0.0432 -0.8975 -0.4390
vn 0.4221 -0.8975 0.1280
vn -0.2079 -0.8975 0.3890
vn -0.3410 -0.8975 -0.2798
vn 0.3890 -0.8975 -0.2079
vn 0.1280 -0.8975 0.4221
vn -0.4390 -0.8975 0.0432
vn 0.1280 -0.8975 -0.4221
vn 0.3890 -0.8975 0.2079
vn -0.2798 -0.8975 0.3410
vn -0.2798 -0.8975 -0.3410
vn 0.4221 -0.8975 -0.1280
vn 0.0432 -0.8975 0.4390
vn 0.0000 -1.0000 0.0000
vn 0.0980 0.0000 0.9952
vn 0.4714 0.0000 -0.8819
vn -0.8819 0.0000 0.4714
vn 0.6344 0.0000 -0.7730
vn -0.9569 0.0000 0.2903
vn 0.7730 0.0000 -0.6344
vn -0.9952 0.0000 0.0980
vn 0.8819 0.0000 -0.4714
vn -0.9952 0.0000 -0.0980
vn 0.9569 0.0000 -0.2903
vn -0.9569 0.0000 -0.2903
vn 0.9952 0.0000 -0.0980
vn -0.8819 0.0000 -0.4714
vn 0.9952 0.0000 0.0980
vn -0.7730 0.0000 -0.6344
vn 0.9569 0.0000 0.2903
vn -0.6344 0.0000 -0.7730
vn 0.8819 0.0000 0.4714
vn -0.4714 0.0000 -0.8819
vn -0.0980 0.0000 0.9952
vn 0.7730 0.0000 0.6344
vn -0.2903 0.0000 -0.9569
vn -0.2903 0.0000 0.9569
vn 0.6344 0.0000 0.7730
vn -0.0980 0.0000 -0.9952
vn -0.4714 0.0000 0.8819
vn 0.4714 0.0000 0.8819
vn 0.0980 0.0000 -0.9952
vn -0.6344 0.0000 0.7730
vn 0.2903 0.0000 0.9569
vn 0.2903 0.0000 -0.9569
usemtl Material.001
s off
f 1/1/1 2/2/1 4/3/1 3/4/1
f 3/4/2 4/3/2 6/5/2 5/6/2
f 5/6/3 6/5/3 8/7/3 7/8/3
f 7/8/4 8/7/4 10/9/4 9/10/4
f 9/10/5 10/9/5 12/11/5 11/12/5
f 11/12/6 12/11/6 14/13/6 13/14/6
f 13/14/7 14/13/7 16/15/7 15/16/7
f 15/16/8 16/15/8 18/17/8 17/18/8
f 17/18/9 18/17/9 20/19/9 19/20/9
f 19/20/10 20/19/10 22/21/10 21/22/10
f 21/22/11 22/21/11 24/23/11 23/24/11
f 23/24/12 24/23/12 26/25/12 25/26/12
f 25/26/13 26/25/13 28/27/13 27/28/13
f 27/28/14 28/27/14 30/29/14 29/30/14
f 29/30/15 30/29/15 32/31/15 31/32/15
f 31/32/16 32/31/16 34/33/16 33/34/16
f 33/34/17 34/33/17 36/35/17 35/36/17
f 35/36/18 36/35/18 38/37/18 37/38/18
f 37/38/19 38/37/19 40/39/19 39/40/19
f 39/40/20 40/39/20 42/41/20 41/42/20
f 41/42/21 42/41/21 44/43/21 43/44/21
f 43/44/22 44/43/22 46/45/22 45/46/22
f 45/46/23 46/45/23 48/47/23 47/48/23
f 47/48/24 48/47/24 50/49/24 49/50/24
f 49/50/25 50/49/25 52/51/25 51/52/25
f 51/52/26 52/51/26 54/53/26 53/54/26
f 53/54/27 54/53/27 56/55/27 55/56/27
f 55/56/28 56/55/28 58/57/28 57/58/28
f 57/58/29 58/57/29 60/59/29 59/60/29
f 59/60/30 60/59/30 62/61/30 61/62/30
f 4/3/31 2/2/31 64/63/31 62/61/31 60/59/31 58/57/31 56/55/31 54/53/31 52/51/31 50/49/31 48/47/31 46/45/31 44/43/31 42/41/31 40/39/31 38/37/31 36/35/31 34/33/31 32/31/31 30/29/31 28/27/31 26/25/31 24/23/31 22/21/31 20/19/31 18/17/31 16/15/31 14/13/31 12/11/31 10/9/31 8/7/31 6/5/31
f 61/62/32 62/61/32 64/63/32 63/64/32
f 63/64/33 64/63/33 2/2/33 1/1/33
f 49/65/34 51/66/34 90/67/34 89/68/34
f 69/69/35 70/70/35 102/71/35 101/72/35
f 5/73/36 7/74/36 68/75/36 67/76/36
f 23/77/37 25/78/37 77/79/37 76/80/37
f 41/81/38 43/82/38 86/83/38 85/84/38
f 59/85/39 61/86/39 95/87/39 94/88/39
f 15/89/40 17/90/40 73/91/40 72/92/40
f 33/93/41 35/94/41 82/95/41 81/96/41
f 51/66/42 53/97/42 91/98/42 90/67/42
f 7/74/43 9/99/43 69/69/43 68/75/43
f 25/78/44 27/100/44 78/101/44 77/79/44
f 43/82/45 45/102/45 87/103/45 86/83/45
f 61/86/46 63/104/46 96/105/46 95/87/46
f 17/90/47 19/106/47 74/107/47 73/91/47
f 35/94/48 37/108/48 83/109/48 82/95/48
f 53/97/49 55/110/49 92/111/49 91/98/49
f 9/99/50 11/112/50 70/70/50 69/69/50
f 27/100/51 29/113/51 79/114/51 78/101/51
f 1/115/52 3/116/52 66/117/52 65/118/52
f 45/102/53 47/119/53 88/120/53 87/103/53
f 63/104/54 1/121/54 65/122/54 96/105/54
f 19/106/55 21/123/55 75/124/55 74/107/55
f 37/108/56 39/125/56 84/126/56 83/109/56
f 55/110/57 57/127/57 93/128/57 92/111/57
f 11/112/58 13/129/58 71/130/58 70/70/58
f 29/113/59 31/131/59 80/132/59 79/114/59
f 47/119/60 49/65/60 89/68/60 88/120/60
f 3/116/61 5/73/61 67/76/61 66/117/61
f 21/123/62 23/77/62 76/80/62 75/124/62
f 39/125/63 41/81/63 85/84/63 84/126/63
f 57/127/64 59/85/64 94/88/64 93/128/64
f 13/129/65 15/89/65 72/92/65 71/130/65
f 31/131/66 33/93/66 81/96/66 80/132/66
f 97/133/67 98/134/67 99/135/67 100/136/67 101/137/67 102/138/67 103/139/67 104/140/67 105/141/67 106/142/67 107/143/67 108/144/67 109/145/67 110/146/67 111/147/67 112/148/67 113/149/67 114/150/67 115/151/67 116/152/67 117/153/67 118/154/67 119/155/67 120/156/67 121/157/67 122/158/67 123/159/67 124/160/67 125/161/67 126/162/67 127/163/67 128/164/67
f 96/105/68 65/122/68 97/165/68 128/166/68
f 83/109/69 84/126/69 116/167/69 115/168/69
f 70/70/70 71/130/70 103/169/70 102/71/70
f 84/126/71 85/84/71 117/170/71 116/167/71
f 71/130/72 72/92/72 104/171/72 103/169/72
f 85/84/73 86/83/73 118/172/73 117/170/73
f 72/92/74 73/91/74 105/173/74 104/171/74
f 86/83/75 87/103/75 119/174/75 118/172/75
f 73/91/76 74/107/76 106/175/76 105/173/76
f 87/103/77 88/120/77 120/176/77 119/174/77
f 74/107/78 75/124/78 107/177/78 106/175/78
f 88/120/79 89/68/79 121/178/79 120/176/79
f 75/124/80 76/80/80 108/179/80 107/177/80
f 89/68/81 90/67/81 122/180/81 121/178/81
f 76/80/82 77/79/82 109/181/82 108/179/82
f 90/67/83 91/98/83 123/182/83 122/180/83
f 77/79/84 78/101/84 110/183/84 109/181/84
f 91/98/85 92/111/85 124/184/85 123/182/85
f 78/101/86 79/114/86 111/185/86 110/183/86
f 65/118/87 66/117/87 98/186/87 97/187/87
f 92/111/88 93/128/88 125/188/88 124/184/88
f 79/114/89 80/132/89 112/189/89 111/185/89
f 66/117/90 67/76/90 99/190/90 98/186/90
f 93/128/91 94/88/91 126/191/91 125/188/91
f 80/132/92 81/96/92 113/192/92 112/189/92
f 67/76/93 68/75/93 100/193/93 99/190/93
f 94/88/94 95/87/94 127/194/94 126/191/94
f 81/96/95 82/95/95 114/195/95 113/192/95
f 68/75/96 69/69/96 101/72/96 100/193/96
f 95/87/97 96/105/97 128/166/97 127/194/97
f 82/95/98 83/109/98 115/168/98 114/195/98
